# Blender 3.3.0
# www.blender.org
mtllib caja_LOD2.mtl
o Cube
v 1.000000 1.000000 -1.000000
v 1.000000 -1.000000 -1.000000
v -1.000000 1.000000 -1.000000
v -1.000000 -1.000000 -1.000000
v 0.000000 -0.333333 1.000000
v 1.000000 1.000000 1.000000
vn -0.0000 0.8321 0.5547
vn -0.8944 -0.0000 0.4472
vn -0.0000 -0.9487 0.3162
vn 0.8944 -0.0000 0.4472
vn -0.0000 -0.0000 -1.0000
vt 0.625000 0.500000
vt 0.375000 0.500000
vt 0.875000 0.500000
vt 0.625000 0.250000
vt 0.125000 0.500000
vt 0.375000 0.250000
vt 0.625000 0.750000
vt 0.625000 0.000000
vt 0.125000 0.750000
vt 0.375000 0.750000
s 0
usemtl Material
f 1/1/1 3/3/1 5/7/1
f 5/8/2 3/4/2 4/6/2
f 4/5/3 2/2/3 5/9/3
f 2/2/4 1/1/4 5/10/4
f 4/6/5 3/4/5 1/1/5 2/2/5
