# Blender 3.3.0
# www.blender.org
mtllib caja_LOD1.mtl
o Cube
v 1.000000 1.000000 -1.000000
v 1.000000 -1.000000 -1.000000
v 0.000000 1.000000 1.000000
v 1.000000 -1.000000 1.000000
v -1.000000 1.000000 -1.000000
v -1.000000 -1.000000 -1.000000
v -1.000000 -1.000000 1.000000
v 1.000000 1.000000 1.000000
vn -0.0000 1.0000 -0.0000
vn -0.0000 -0.0000 1.0000
vn -0.9428 0.2357 0.2357
vn -0.0000 -1.0000 -0.0000
vn 0.9428 0.2357 0.2357
vn -0.0000 -0.0000 -1.0000
vt 0.625000 0.500000
vt 0.375000 0.500000
vt 0.625000 1.000000
vt 0.625000 0.000000
vt 0.625000 0.750000
vt 0.375000 0.750000
vt 0.875000 0.500000
vt 0.625000 0.250000
vt 0.125000 0.500000
vt 0.375000 0.250000
vt 0.375000 1.000000
vt 0.375000 0.000000
vt 0.125000 0.750000
s 0
usemtl Material
f 1/1/1 5/7/1 3/5/1
f 4/6/2 3/3/2 7/11/2
f 7/12/3 3/4/3 5/8/3 6/10/3
f 6/9/4 2/2/4 4/6/4 7/13/4
f 2/2/5 1/1/5 3/5/5 4/6/5
f 6/10/6 5/8/6 1/1/6 2/2/6
