{
    "asset" : {
        "generator" : "Khronos glTF Blender I/O v3.3.27",
        "version" : "2.0"
    },
    "scene" : 0,
    "scenes" : [
        {
            "name" : "Scene",
            "nodes" : [
                2
            ]
        }
    ],
    "nodes" : [
        {
            "mesh" : 0,
            "name" : "Object_2",
            "scale" : [
                0.02520640753209591,
                0.02520640753209591,
                0.02520640753209591
            ]
        },
        {
            "children" : [
                0
            ],
            "name" : "bfd69e6b9f3849ae84ae60844f34ca32.obj.cleaner.materialmerger.gle"
        },
        {
            "children" : [
                1
            ],
            "name" : "Sketchfab_model",
            "rotation" : [
                -0.7071068286895752,
                0,
                0,
                0.7071067094802856
            ]
        }
    ],
    "materials" : [
        {
            "name" : "material_0",
            "normalTexture" : {
                "index" : 0
            },
            "occlusionTexture" : {
                "index" : 1
            },
            "pbrMetallicRoughness" : {
                "baseColorTexture" : {
                    "index" : 2
                },
                "metallicRoughnessTexture" : {
                    "index" : 1
                }
            }
        }
    ],
    "meshes" : [
        {
            "name" : "Object_0",
            "primitives" : [
                {
                    "attributes" : {
                        "POSITION" : 0,
                        "NORMAL" : 1,
                        "TEXCOORD_0" : 2
                    },
                    "indices" : 3,
                    "material" : 0
                }
            ]
        }
    ],
    "textures" : [
        {
            "sampler" : 0,
            "source" : 0
        },
        {
            "sampler" : 0,
            "source" : 1
        },
        {
            "sampler" : 0,
            "source" : 2
        }
    ],
    "images" : [
        {
            "bufferView" : 4,
            "mimeType" : "image/jpeg",
            "name" : "material_0_normal"
        },
        {
            "bufferView" : 5,
            "mimeType" : "image/jpeg",
            "name" : "material_0_metallicRoughness"
        },
        {
            "bufferView" : 6,
            "mimeType" : "image/jpeg",
            "name" : "material_0_baseColor"
        }
    ],
    "accessors" : [
        {
            "bufferView" : 0,
            "componentType" : 5126,
            "count" : 4268,
            "max" : [
                97.26789855957031,
                121.65480041503906,
                81.97760009765625
            ],
            "min" : [
                -97.26789855957031,
                -97.33529663085938,
                -91.32579803466797
            ],
            "type" : "VEC3"
        },
        {
            "bufferView" : 1,
            "componentType" : 5126,
            "count" : 4268,
            "type" : "VEC3"
        },
        {
            "bufferView" : 2,
            "componentType" : 5126,
            "count" : 4268,
            "type" : "VEC2"
        },
        {
            "bufferView" : 3,
            "componentType" : 5123,
            "count" : 19620,
            "type" : "SCALAR"
        }
    ],
    "bufferViews" : [
        {
            "buffer" : 0,
            "byteLength" : 51216,
            "byteOffset" : 0,
            "target" : 34962
        },
        {
            "buffer" : 0,
            "byteLength" : 51216,
            "byteOffset" : 51216,
            "target" : 34962
        },
        {
            "buffer" : 0,
            "byteLength" : 34144,
            "byteOffset" : 102432,
            "target" : 34962
        },
        {
            "buffer" : 0,
            "byteLength" : 39240,
            "byteOffset" : 136576,
            "target" : 34963
        },
        {
            "buffer" : 0,
            "byteLength" : 428047,
            "byteOffset" : 175816
        },
        {
            "buffer" : 0,
            "byteLength" : 454451,
            "byteOffset" : 603864
        },
        {
            "buffer" : 0,
            "byteLength" : 424332,
            "byteOffset" : 1058316
        }
    ],
    "samplers" : [
        {
            "magFilter" : 9729,
            "minFilter" : 9987
        }
    ],
    "buffers" : [
        {
            "byteLength" : 1482648,
            "uri" : "data:application/octet-stream;base64,"
        }
    ]
}
