{
    "asset" : {
        "generator" : "Khronos glTF Blender I/O v3.3.27",
        "version" : "2.0"
    },
    "scene" : 0,
    "scenes" : [
        {
            "name" : "Scene",
            "nodes" : [
                2,
                3,
                4,
                5
            ]
        }
    ],
    "nodes" : [
        {
            "mesh" : 0,
            "name" : "Object_2",
            "scale" : [
                0.02520640753209591,
                0.02520640939474106,
                0.02520640939474106
            ]
        },
        {
            "children" : [
                0
            ],
            "name" : "bfd69e6b9f3849ae84ae60844f34ca32.obj.cleaner.materialmerger.gle"
        },
        {
            "children" : [
                1
            ],
            "name" : "Sketchfab_model",
            "rotation" : [
                -0.7071068286895752,
                0,
                0,
                0.7071067094802856
            ]
        },
        {
            "name" : "particle_1",
            "rotation" : [
                0.7071068286895752,
                0,
                0,
                0.7071067094802856
            ],
            "scale" : [
                0.6396915912628174,
                0.6396916508674622,
                0.6396916508674622
            ],
            "translation" : [
                0,
                0,
                -3.080510139465332
            ]
        },
        {
            "name" : "particle_2",
            "rotation" : [
                0.7048583626747131,
                0.056344807147979736,
                -0.056344810873270035,
                0.7048583030700684
            ],
            "scale" : [
                0.537672221660614,
                0.537672221660614,
                0.537672221660614
            ],
            "translation" : [
                -1.9055978059768677,
                -0.6370457410812378,
                -2.046700954437256
            ]
        },
        {
            "name" : "particle_0",
            "rotation" : [
                0.7059943675994873,
                -0.03964851051568985,
                0.03964851424098015,
                0.7059943079948425
            ],
            "scale" : [
                0.537672221660614,
                0.537672221660614,
                0.537672221660614
            ],
            "translation" : [
                1.9332953691482544,
                -0.659203827381134,
                -2.046700954437256
            ]
        }
    ],
    "materials" : [
        {
            "name" : "material_0.001",
            "normalTexture" : {
                "index" : 0
            },
            "pbrMetallicRoughness" : {
                "baseColorTexture" : {
                    "index" : 1
                },
                "metallicFactor" : 0,
                "roughnessFactor" : 0
            }
        }
    ],
    "meshes" : [
        {
            "name" : "Object_0.001",
            "primitives" : [
                {
                    "attributes" : {
                        "POSITION" : 0,
                        "NORMAL" : 1,
                        "TEXCOORD_0" : 2
                    },
                    "indices" : 3,
                    "material" : 0
                }
            ]
        }
    ],
    "textures" : [
        {
            "sampler" : 0,
            "source" : 0
        },
        {
            "sampler" : 0,
            "source" : 1
        }
    ],
    "images" : [
        {
            "mimeType" : "image/jpeg",
            "name" : "Image_0",
            "uri" : "Image_0.jpg"
        },
        {
            "mimeType" : "image/jpeg",
            "name" : "Image_2",
            "uri" : "Image_2.jpg"
        }
    ],
    "accessors" : [
        {
            "bufferView" : 0,
            "componentType" : 5126,
            "count" : 2132,
            "max" : [
                97.10348510742188,
                121.65480041503906,
                81.84870147705078
            ],
            "min" : [
                -97.1034927368164,
                -97.55825805664062,
                -91.32579803466797
            ],
            "type" : "VEC3"
        },
        {
            "bufferView" : 1,
            "componentType" : 5126,
            "count" : 2132,
            "type" : "VEC3"
        },
        {
            "bufferView" : 2,
            "componentType" : 5126,
            "count" : 2132,
            "type" : "VEC2"
        },
        {
            "bufferView" : 3,
            "componentType" : 5123,
            "count" : 7845,
            "type" : "SCALAR"
        }
    ],
    "bufferViews" : [
        {
            "buffer" : 0,
            "byteLength" : 25584,
            "byteOffset" : 0,
            "target" : 34962
        },
        {
            "buffer" : 0,
            "byteLength" : 25584,
            "byteOffset" : 25584,
            "target" : 34962
        },
        {
            "buffer" : 0,
            "byteLength" : 17056,
            "byteOffset" : 51168,
            "target" : 34962
        },
        {
            "buffer" : 0,
            "byteLength" : 15690,
            "byteOffset" : 68224,
            "target" : 34963
        }
    ],
    "samplers" : [
        {
            "magFilter" : 9729,
            "minFilter" : 9987
        }
    ],
    "buffers" : [
        {
            "byteLength" : 83916,
            "uri" : "player_old_LOD2.bin"
        }
    ]
}
