{
  "accessors": [
    {
      "bufferView": 2,
      "componentType": 5126,
      "count": 35,
      "max": [
        1.1735994815826416,
        1.3946468830108643,
        0.8873533010482788
      ],
      "min": [
        -0.8816820383071899,
        -0.661409854888916,
        -0.8034635782241821
      ],
      "type": "VEC3"
    },
    {
      "bufferView": 2,
      "byteOffset": 420,
      "componentType": 5126,
      "count": 35,
      "max": [
        0.9776006937026978,
        0.9826563000679016,
        0.9847914576530457
      ],
      "min": [
        -0.9625608921051025,
        -0.9811465740203857,
        -0.9832859039306641
      ],
      "type": "VEC3"
    },
    {
      "bufferView": 3,
      "componentType": 5126,
      "count": 35,
      "max": [
        0.9795860052108765,
        0.9746204614639282,
        0.3087187707424164,
        1.0
      ],
      "min": [
        -0.9859611392021179,
        -0.9789929389953613,
        -0.9932859539985657,
        1.0
      ],
      "type": "VEC4"
    },
    {
      "bufferView": 1,
      "componentType": 5126,
      "count": 35,
      "max": [
        0.738519549369812,
        0.6773747801780701
      ],
      "min": [
        0.4907497465610504,
        0.24456369876861572
      ],
      "type": "VEC2"
    },
    {
      "bufferView": 0,
      "componentType": 5125,
      "count": 174,
      "type": "SCALAR"
    },
    {
      "bufferView": 2,
      "byteOffset": 840,
      "componentType": 5126,
      "count": 23,
      "max": [
        1.1037938594818115,
        0.7381821870803833,
        1.153586745262146
      ],
      "min": [
        -0.2971332371234894,
        -0.6893939971923828,
        -1.2521700859069824
      ],
      "type": "VEC3"
    },
    {
      "bufferView": 2,
      "byteOffset": 1116,
      "componentType": 5126,
      "count": 23,
      "max": [
        0.9781692624092102,
        0.9701647162437439,
        0.9789502620697021
      ],
      "min": [
        -0.9890120625495911,
        -0.9608275294303894,
        -0.920595645904541
      ],
      "type": "VEC3"
    },
    {
      "bufferView": 3,
      "byteOffset": 560,
      "componentType": 5126,
      "count": 23,
      "max": [
        0.8360000848770142,
        0.9942296743392944,
        0.987512469291687,
        1.0
      ],
      "min": [
        -0.9179254174232483,
        -0.47253653407096863,
        -0.9988822340965271,
        1.0
      ],
      "type": "VEC4"
    },
    {
      "bufferView": 1,
      "byteOffset": 280,
      "componentType": 5126,
      "count": 23,
      "max": [
        0.9908336997032166,
        0.34636107087135315
      ],
      "min": [
        0.8646543025970459,
        0.1291694939136505
      ],
      "type": "VEC2"
    },
    {
      "bufferView": 0,
      "byteOffset": 696,
      "componentType": 5125,
      "count": 108,
      "type": "SCALAR"
    },
    {
      "bufferView": 2,
      "byteOffset": 1392,
      "componentType": 5126,
      "count": 24,
      "max": [
        1.1512616872787476,
        0.8198509216308594,
        1.112398386001587
      ],
      "min": [
        -0.29342809319496155,
        -0.5059192180633545,
        -1.321954369544983
      ],
      "type": "VEC3"
    },
    {
      "bufferView": 2,
      "byteOffset": 1680,
      "componentType": 5126,
      "count": 24,
      "max": [
        0.9910691380500793,
        0.8921720385551453,
        0.9979341626167297
      ],
      "min": [
        -0.9706830382347107,
        -0.9298436045646667,
        -0.8567134737968445
      ],
      "type": "VEC3"
    },
    {
      "bufferView": 3,
      "byteOffset": 928,
      "componentType": 5126,
      "count": 24,
      "max": [
        0.9747613668441772,
        0.9531546831130981,
        0.19390738010406494,
        1.0
      ],
      "min": [
        -0.9203230738639832,
        -0.9388243556022644,
        -0.9986662268638611,
        1.0
      ],
      "type": "VEC4"
    },
    {
      "bufferView": 1,
      "byteOffset": 464,
      "componentType": 5126,
      "count": 24,
      "max": [
        0.8531853556632996,
        0.36347922682762146
      ],
      "min": [
        0.763388454914093,
        0.22950299084186554
      ],
      "type": "VEC2"
    },
    {
      "bufferView": 0,
      "byteOffset": 1128,
      "componentType": 5125,
      "count": 108,
      "type": "SCALAR"
    },
    {
      "bufferView": 2,
      "byteOffset": 1968,
      "componentType": 5126,
      "count": 49,
      "max": [
        0.4425489008426666,
        0.12987668812274933,
        1.0951359272003174
      ],
      "min": [
        -1.0101032257080078,
        -1.3288146257400513,
        -1.1455962657928467
      ],
      "type": "VEC3"
    },
    {
      "bufferView": 2,
      "byteOffset": 2556,
      "componentType": 5126,
      "count": 49,
      "max": [
        0.962051272392273,
        0.9978909492492676,
        0.9434958100318909
      ],
      "min": [
        -0.9761614203453064,
        -0.9914444088935852,
        -0.9453412294387817
      ],
      "type": "VEC3"
    },
    {
      "bufferView": 3,
      "byteOffset": 1312,
      "componentType": 5126,
      "count": 49,
      "max": [
        0.953326940536499,
        0.7698588371276855,
        0.9940968751907349,
        1.0
      ],
      "min": [
        -0.984009325504303,
        -0.9123852252960205,
        -0.9481464624404907,
        1.0
      ],
      "type": "VEC4"
    },
    {
      "bufferView": 1,
      "byteOffset": 656,
      "componentType": 5126,
      "count": 49,
      "max": [
        0.6015456914901733,
        0.3735162615776062
      ],
      "min": [
        0.29990261793136597,
        0.0
      ],
      "type": "VEC2"
    },
    {
      "bufferView": 0,
      "byteOffset": 1560,
      "componentType": 5125,
      "count": 228,
      "type": "SCALAR"
    },
    {
      "bufferView": 2,
      "byteOffset": 3144,
      "componentType": 5126,
      "count": 36,
      "max": [
        0.614370584487915,
        0.5397339463233948,
        0.7906889915466309
      ],
      "min": [
        -0.6198146939277649,
        -0.806252121925354,
        -0.8525628447532654
      ],
      "type": "VEC3"
    },
    {
      "bufferView": 2,
      "byteOffset": 3576,
      "componentType": 5126,
      "count": 36,
      "max": [
        0.9751650094985962,
        0.9623278975486755,
        0.9051585793495178
      ],
      "min": [
        -0.9902687072753906,
        -0.9767264723777771,
        -0.9984533190727234
      ],
      "type": "VEC3"
    },
    {
      "bufferView": 3,
      "byteOffset": 2096,
      "componentType": 5126,
      "count": 36,
      "max": [
        0.8997560143470764,
        0.6244627833366394,
        0.9905613660812378,
        1.0
      ],
      "min": [
        -0.9963158369064331,
        -0.9791956543922424,
        -0.8511525392532349,
        1.0
      ],
      "type": "VEC4"
    },
    {
      "bufferView": 1,
      "byteOffset": 1048,
      "componentType": 5126,
      "count": 36,
      "max": [
        0.45854413509368896,
        0.741753339767456
      ],
      "min": [
        0.19474196434020996,
        0.3221248686313629
      ],
      "type": "VEC2"
    },
    {
      "bufferView": 0,
      "byteOffset": 2472,
      "componentType": 5125,
      "count": 186,
      "type": "SCALAR"
    },
    {
      "bufferView": 2,
      "byteOffset": 4008,
      "componentType": 5126,
      "count": 29,
      "max": [
        0.5874444246292114,
        0.22871612012386322,
        0.48776912689208984
      ],
      "min": [
        -0.4494476020336151,
        -0.5766047835350037,
        -0.9002940654754639
      ],
      "type": "VEC3"
    },
    {
      "bufferView": 2,
      "byteOffset": 4356,
      "componentType": 5126,
      "count": 29,
      "max": [
        0.9610708951950073,
        0.9740073084831238,
        0.9688924551010132
      ],
      "min": [
        -0.9742974042892456,
        -0.9803639650344849,
        -0.9508217573165894
      ],
      "type": "VEC3"
    },
    {
      "bufferView": 3,
      "byteOffset": 2672,
      "componentType": 5126,
      "count": 29,
      "max": [
        0.9564458727836609,
        0.9448838233947754,
        0.9254689812660217,
        1.0
      ],
      "min": [
        -0.9281082153320313,
        -0.4834698736667633,
        -0.9897246956825256,
        1.0
      ],
      "type": "VEC4"
    },
    {
      "bufferView": 1,
      "byteOffset": 1336,
      "componentType": 5126,
      "count": 29,
      "max": [
        0.8390839695930481,
        0.27513569593429565
      ],
      "min": [
        0.6270691156387329,
        0.0
      ],
      "type": "VEC2"
    },
    {
      "bufferView": 0,
      "byteOffset": 3216,
      "componentType": 5125,
      "count": 144,
      "type": "SCALAR"
    },
    {
      "bufferView": 2,
      "byteOffset": 4704,
      "componentType": 5126,
      "count": 26,
      "max": [
        0.6033650040626526,
        0.5686295628547668,
        1.1083886623382568
      ],
      "min": [
        -0.37811312079429626,
        -0.5953316688537598,
        -0.8727462291717529
      ],
      "type": "VEC3"
    },
    {
      "bufferView": 2,
      "byteOffset": 5016,
      "componentType": 5126,
      "count": 26,
      "max": [
        0.9898310303688049,
        0.887292742729187,
        0.9029664993286133
      ],
      "min": [
        -0.9855985641479492,
        -0.9953205585479736,
        -0.9896990656852722
      ],
      "type": "VEC3"
    },
    {
      "bufferView": 3,
      "byteOffset": 3136,
      "componentType": 5126,
      "count": 26,
      "max": [
        0.9990720748901367,
        0.8967204689979553,
        0.7939577102661133,
        1.0
      ],
      "min": [
        -0.9919118285179138,
        -0.9809237718582153,
        -0.9004436135292053,
        1.0
      ],
      "type": "VEC4"
    },
    {
      "bufferView": 1,
      "byteOffset": 1568,
      "componentType": 5126,
      "count": 26,
      "max": [
        0.9779710173606873,
        0.22942760586738586
      ],
      "min": [
        0.8412852883338928,
        0.0
      ],
      "type": "VEC2"
    },
    {
      "bufferView": 0,
      "byteOffset": 3792,
      "componentType": 5125,
      "count": 108,
      "type": "SCALAR"
    },
    {
      "bufferView": 2,
      "byteOffset": 5328,
      "componentType": 5126,
      "count": 35,
      "max": [
        0.9780616164207458,
        0.8364403247833252,
        2.008744716644287
      ],
      "min": [
        -0.7970407009124756,
        -1.4858801364898682,
        -1.0031205415725708
      ],
      "type": "VEC3"
    },
    {
      "bufferView": 2,
      "byteOffset": 5748,
      "componentType": 5126,
      "count": 35,
      "max": [
        0.945896327495575,
        0.9922251105308533,
        0.9335122108459473
      ],
      "min": [
        -0.9701035618782043,
        -0.9923633933067322,
        -0.92644202709198
      ],
      "type": "VEC3"
    },
    {
      "bufferView": 3,
      "byteOffset": 3552,
      "componentType": 5126,
      "count": 35,
      "max": [
        0.905239462852478,
        0.9815950393676758,
        0.3545956611633301,
        1.0
      ],
      "min": [
        -0.926064670085907,
        -0.9769118428230286,
        -0.98944491147995,
        -1.0
      ],
      "type": "VEC4"
    },
    {
      "bufferView": 1,
      "byteOffset": 1776,
      "componentType": 5126,
      "count": 35,
      "max": [
        1.0,
        0.7405468821525574
      ],
      "min": [
        0.7088607549667358,
        0.37704795598983765
      ],
      "type": "VEC2"
    },
    {
      "bufferView": 0,
      "byteOffset": 4224,
      "componentType": 5125,
      "count": 180,
      "type": "SCALAR"
    },
    {
      "bufferView": 2,
      "byteOffset": 6168,
      "componentType": 5126,
      "count": 35,
      "max": [
        1.027061939239502,
        0.9484443068504333,
        1.4138940572738647
      ],
      "min": [
        -0.9703517556190491,
        -1.2291253805160522,
        -1.1445808410644531
      ],
      "type": "VEC3"
    },
    {
      "bufferView": 2,
      "byteOffset": 6588,
      "componentType": 5126,
      "count": 35,
      "max": [
        0.996950626373291,
        0.9488602876663208,
        0.9742812514305115
      ],
      "min": [
        -0.9960024356842041,
        -0.8734264969825745,
        -0.9222286343574524
      ],
      "type": "VEC3"
    },
    {
      "bufferView": 3,
      "byteOffset": 4112,
      "componentType": 5126,
      "count": 35,
      "max": [
        0.9974694848060608,
        0.9833133816719055,
        0.8208531737327576,
        1.0
      ],
      "min": [
        -0.6948223114013672,
        -0.9922547936439514,
        -0.9655754566192627,
        1.0
      ],
      "type": "VEC4"
    },
    {
      "bufferView": 1,
      "byteOffset": 2056,
      "componentType": 5126,
      "count": 35,
      "max": [
        0.2980375289916992,
        0.4406602382659912
      ],
      "min": [
        0.0,
        0.0
      ],
      "type": "VEC2"
    },
    {
      "bufferView": 0,
      "byteOffset": 4944,
      "componentType": 5125,
      "count": 156,
      "type": "SCALAR"
    }
  ],
  "asset": {
    "extras": {
      "author": "VladNeko (https://sketchfab.com/vlad.neko)",
      "license": "CC-BY-4.0 (http://creativecommons.org/licenses/by/4.0/)",
      "source": "https://sketchfab.com/3d-models/ruined-rock-fence-75e2716c378e4a68bac3577303671921",
      "title": "Ruined rock fence"
    },
    "generator": "Sketchfab-12.63.0",
    "version": "2.0"
  },
  "bufferViews": [
    {
      "buffer": 0,
      "byteLength": 5568,
      "name": "floatBufferViews",
      "target": 34963
    },
    {
      "buffer": 0,
      "byteLength": 2336,
      "byteOffset": 5568,
      "byteStride": 8,
      "name": "floatBufferViews",
      "target": 34962
    },
    {
      "buffer": 0,
      "byteLength": 7008,
      "byteOffset": 7904,
      "byteStride": 12,
      "name": "floatBufferViews",
      "target": 34962
    },
    {
      "buffer": 0,
      "byteLength": 4672,
      "byteOffset": 14912,
      "byteStride": 16,
      "name": "floatBufferViews",
      "target": 34962
    }
  ],
  "buffers": [
    {
      "byteLength": 19584,
      "uri": "scene.bin"
    }
  ],
  "images": [
    {
      "uri": "textures/rock_baseColor.png"
    },
    {
      "uri": "textures/rock_normal.png"
    }
  ],
  "materials": [
    {
      "doubleSided": true,
      "name": "rock",
      "normalTexture": {
        "index": 1
      },
      "pbrMetallicRoughness": {
        "baseColorTexture": {
          "index": 0
        },
        "metallicFactor": 0.0,
        "roughnessFactor": 0.8211145618000169
      }
    }
  ],
  "meshes": [
    {
      "name": "1_lp_rock_0",
      "primitives": [
        {
          "attributes": {
            "NORMAL": 1,
            "POSITION": 0,
            "TANGENT": 2,
            "TEXCOORD_0": 3
          },
          "indices": 4,
          "material": 0,
          "mode": 4
        }
      ]
    },
    {
      "name": "2_lp_rock_0",
      "primitives": [
        {
          "attributes": {
            "NORMAL": 6,
            "POSITION": 5,
            "TANGENT": 7,
            "TEXCOORD_0": 8
          },
          "indices": 9,
          "material": 0,
          "mode": 4
        }
      ]
    },
    {
      "name": "3_lp_rock_0",
      "primitives": [
        {
          "attributes": {
            "NORMAL": 11,
            "POSITION": 10,
            "TANGENT": 12,
            "TEXCOORD_0": 13
          },
          "indices": 14,
          "material": 0,
          "mode": 4
        }
      ]
    },
    {
      "name": "4_lp_rock_0",
      "primitives": [
        {
          "attributes": {
            "NORMAL": 16,
            "POSITION": 15,
            "TANGENT": 17,
            "TEXCOORD_0": 18
          },
          "indices": 19,
          "material": 0,
          "mode": 4
        }
      ]
    },
    {
      "name": "5_lp_rock_0",
      "primitives": [
        {
          "attributes": {
            "NORMAL": 21,
            "POSITION": 20,
            "TANGENT": 22,
            "TEXCOORD_0": 23
          },
          "indices": 24,
          "material": 0,
          "mode": 4
        }
      ]
    },
    {
      "name": "6_lp_rock_0",
      "primitives": [
        {
          "attributes": {
            "NORMAL": 26,
            "POSITION": 25,
            "TANGENT": 27,
            "TEXCOORD_0": 28
          },
          "indices": 29,
          "material": 0,
          "mode": 4
        }
      ]
    },
    {
      "name": "7_lp_rock_0",
      "primitives": [
        {
          "attributes": {
            "NORMAL": 31,
            "POSITION": 30,
            "TANGENT": 32,
            "TEXCOORD_0": 33
          },
          "indices": 34,
          "material": 0,
          "mode": 4
        }
      ]
    },
    {
      "name": "8_lp_rock_0",
      "primitives": [
        {
          "attributes": {
            "NORMAL": 36,
            "POSITION": 35,
            "TANGENT": 37,
            "TEXCOORD_0": 38
          },
          "indices": 39,
          "material": 0,
          "mode": 4
        }
      ]
    },
    {
      "name": "9_lp_rock_0",
      "primitives": [
        {
          "attributes": {
            "NORMAL": 41,
            "POSITION": 40,
            "TANGENT": 42,
            "TEXCOORD_0": 43
          },
          "indices": 44,
          "material": 0,
          "mode": 4
        }
      ]
    }
  ],
  "nodes": [
    {
      "children": [
        1
      ],
      "matrix": [
        1.0,
        0.0,
        0.0,
        0.0,
        0.0,
        2.220446049250313e-16,
        -1.0,
        0.0,
        0.0,
        1.0,
        2.220446049250313e-16,
        0.0,
        0.0,
        0.0,
        0.0,
        1.0
      ],
      "name": "Sketchfab_model"
    },
    {
      "children": [
        2
      ],
      "matrix": [
        1.0,
        0.0,
        0.0,
        0.0,
        0.0,
        0.0,
        1.0,
        0.0,
        0.0,
        -1.0,
        0.0,
        0.0,
        0.0,
        0.0,
        0.0,
        1.0
      ],
      "name": "stone_fence_old_low.fbx"
    },
    {
      "children": [
        3,
        5,
        7,
        9,
        11,
        13,
        15,
        17,
        19
      ],
      "name": "RootNode"
    },
    {
      "children": [
        4
      ],
      "matrix": [
        24.59755819990569,
        65.5693766471511,
        13.945310857590608,
        0.0,
        -21.24060962382423,
        -6.46574286593199,
        67.86667363447616,
        0.0,
        63.58184765810997,
        -27.52645515688919,
        17.277084044630058,
        0.0,
        111.04551696777344,
        24.20260238647461,
        0.0,
        1.0
      ],
      "name": "1_lp"
    },
    {
      "mesh": 0,
      "name": "1_lp_rock_0"
    },
    {
      "children": [
        6
      ],
      "matrix": [
        -35.57998179024794,
        -7.561396198401469,
        7.559985619721665,
        0.0,
        -9.392440111492236,
        34.65526747814599,
        -9.542430898394352,
        0.0,
        -5.109813365631813,
        -11.049942061499372,
        -35.10060332719164,
        0.0,
        68.6961669921875,
        100.31636047363281,
        12.641888618469238,
        1.0
      ],
      "name": "2_lp"
    },
    {
      "mesh": 1,
      "name": "2_lp_rock_0"
    },
    {
      "children": [
        8
      ],
      "matrix": [
        -12.902276414102133,
        -1.5200897704320349,
        22.407487236775456,
        0.0,
        -5.359599804764513,
        25.30364063219984,
        -1.3695079928453535,
        0.0,
        -21.810112234593284,
        -5.318852189984427,
        -12.919129504295414,
        0.0,
        10.664973258972168,
        93.70600128173828,
        -28.441619873046875,
        1.0
      ],
      "name": "3_lp"
    },
    {
      "mesh": 2,
      "name": "3_lp_rock_0"
    },
    {
      "children": [
        10
      ],
      "matrix": [
        5.79813373261184,
        65.07961482678246,
        -21.757483561098454,
        0.0,
        -10.24096660703656,
        22.411149447424908,
        64.30571237689702,
        0.0,
        67.85179376053951,
        -2.178695434763824,
        11.56499159451527,
        0.0,
        -15.162221908569336,
        147.11154174804688,
        38.13264846801758,
        1.0
      ],
      "name": "4_lp"
    },
    {
      "mesh": 3,
      "name": "4_lp_rock_0"
    },
    {
      "children": [
        12
      ],
      "matrix": [
        -31.811627384742856,
        63.35247326149598,
        70.53002548408524,
        0.0,
        9.727982482148734,
        76.18328504104693,
        -64.042746952185,
        0.0,
        -94.30475449287425,
        -13.511891503636008,
        -30.39806026760068,
        0.0,
        0.0,
        46.332298278808594,
        0.0,
        1.0
      ],
      "name": "5_lp"
    },
    {
      "mesh": 4,
      "name": "5_lp_rock_0"
    },
    {
      "children": [
        14
      ],
      "matrix": [
        -88.5148997965212,
        42.30051804506422,
        -19.38501191980574,
        0.0,
        44.266952925226605,
        89.38923942420674,
        -7.071121118861989,
        0.0,
        14.33699275870778,
        -14.840148741727727,
        -97.84793865013873,
        0.0,
        -82.74260711669922,
        33.14091110229492,
        -9.694097518920898,
        1.0
      ],
      "name": "6_lp"
    },
    {
      "mesh": 5,
      "name": "6_lp_rock_0"
    },
    {
      "children": [
        16
      ],
      "matrix": [
        48.00300556439724,
        -10.232549211813179,
        -20.688532624589666,
        0.0,
        -14.249999672590379,
        -53.3014611323013,
        -6.700958061830841,
        0.0,
        -13.856002886121717,
        8.259754353617074,
        -36.23495876419358,
        0.0,
        -76.58233642578125,
        69.98837280273438,
        0.0,
        1.0
      ],
      "name": "7_lp"
    },
    {
      "mesh": 6,
      "name": "7_lp_rock_0"
    },
    {
      "children": [
        18
      ],
      "matrix": [
        6.390993209101422,
        -49.02623670806553,
        -37.99883544300635,
        0.0,
        -8.526439699846023,
        37.143009758060884,
        -49.35610222795365,
        0.0,
        61.43926061546629,
        10.25441868027772,
        -2.896869308596313,
        0.0,
        -205.12042236328125,
        101.99842834472656,
        4.175353527069092,
        1.0
      ],
      "name": "8_lp"
    },
    {
      "mesh": 7,
      "name": "8_lp_rock_0"
    },
    {
      "children": [
        20
      ],
      "matrix": [
        -1.2471288359533217,
        -49.02622197624272,
        -38.512366888850615,
        0.0,
        -18.11539346780635,
        37.1430251097024,
        -46.696427916761515,
        0.0,
        59.654043691537055,
        10.254433506989168,
        -14.98563858951727,
        0.0,
        -205.13853454589844,
        32.487274169921875,
        12.734033584594727,
        1.0
      ],
      "name": "9_lp"
    },
    {
      "mesh": 8,
      "name": "9_lp_rock_0"
    }
  ],
  "samplers": [
    {
      "magFilter": 9729,
      "minFilter": 9987,
      "wrapS": 10497,
      "wrapT": 10497
    }
  ],
  "scene": 0,
  "scenes": [
    {
      "name": "Sketchfab_Scene",
      "nodes": [
        0
      ]
    }
  ],
  "textures": [
    {
      "sampler": 0,
      "source": 0
    },
    {
      "sampler": 0,
      "source": 1
    }
  ]
}
